<mxfile host="app.diagrams.net" agent="Mozilla/5.0 (Macintosh; Intel Mac OS X 10_15_7) AppleWebKit/537.36 (KHTML, like Gecko) Chrome/130.0.0.0 Safari/537.36" version="24.8.4">
  <diagram name="Page-1" id="uOt-dvqIxNIvzrICgiJx">
    <mxGraphModel dx="1207" dy="1865" grid="1" gridSize="10" guides="1" tooltips="1" connect="1" arrows="1" fold="1" page="1" pageScale="1" pageWidth="850" pageHeight="1100" math="0" shadow="0">
      <root>
        <mxCell id="0" />
        <mxCell id="1" parent="0" />
        <mxCell id="fXd5p_I2Rt34cmvx9dC--46" value="" style="rounded=0;whiteSpace=wrap;html=1;fillColor=none;" vertex="1" parent="1">
          <mxGeometry x="270" y="150" width="110" height="490" as="geometry" />
        </mxCell>
        <mxCell id="fXd5p_I2Rt34cmvx9dC--48" value="" style="rounded=0;whiteSpace=wrap;html=1;fillColor=none;" vertex="1" parent="1">
          <mxGeometry x="30" y="150" width="240" height="490" as="geometry" />
        </mxCell>
        <mxCell id="fXd5p_I2Rt34cmvx9dC--44" value="" style="rounded=0;whiteSpace=wrap;html=1;fillColor=none;" vertex="1" parent="1">
          <mxGeometry x="380" y="150" width="460" height="490" as="geometry" />
        </mxCell>
        <mxCell id="fXd5p_I2Rt34cmvx9dC--50" value="" style="rounded=0;whiteSpace=wrap;html=1;fillColor=none;" vertex="1" parent="1">
          <mxGeometry x="30" y="-30" width="810" height="180" as="geometry" />
        </mxCell>
        <mxCell id="fXd5p_I2Rt34cmvx9dC--1" value="费用控制信息表" style="rounded=0;whiteSpace=wrap;html=1;" vertex="1" parent="1">
          <mxGeometry x="595" y="170" width="120" height="60" as="geometry" />
        </mxCell>
        <mxCell id="fXd5p_I2Rt34cmvx9dC--2" value="费用控制流水表" style="rounded=0;whiteSpace=wrap;html=1;" vertex="1" parent="1">
          <mxGeometry x="580" y="290" width="160" height="290" as="geometry" />
        </mxCell>
        <mxCell id="fXd5p_I2Rt34cmvx9dC--29" style="edgeStyle=orthogonalEdgeStyle;rounded=0;orthogonalLoop=1;jettySize=auto;html=1;exitX=1;exitY=0.5;exitDx=0;exitDy=0;entryX=0;entryY=0.5;entryDx=0;entryDy=0;dashed=1;" edge="1" parent="1" source="fXd5p_I2Rt34cmvx9dC--3" target="fXd5p_I2Rt34cmvx9dC--18">
          <mxGeometry relative="1" as="geometry" />
        </mxCell>
        <mxCell id="fXd5p_I2Rt34cmvx9dC--42" style="edgeStyle=orthogonalEdgeStyle;rounded=0;orthogonalLoop=1;jettySize=auto;html=1;exitX=0.25;exitY=0;exitDx=0;exitDy=0;entryX=0;entryY=0.25;entryDx=0;entryDy=0;dashed=1;" edge="1" parent="1" source="fXd5p_I2Rt34cmvx9dC--3" target="fXd5p_I2Rt34cmvx9dC--1">
          <mxGeometry relative="1" as="geometry" />
        </mxCell>
        <mxCell id="fXd5p_I2Rt34cmvx9dC--3" value="&lt;span style=&quot;color: rgba(0, 0, 0, 0); font-family: monospace; font-size: 0px; text-align: start; text-wrap-mode: nowrap;&quot;&gt;卡没%3CmxGraphModel%3E%3Croot%3E%3CmxCell%20id%3D%220%22%2F%3E%3CmxCell%20id%3D%221%22%20parent%3D%220%22%2F%3E%3CmxCell%20id%3D%222%22%20value%3D%22%E5%BC%BA%E5%88%B6%E4%BA%8B%E5%8A%A1%22%20style%3D%22text%3Bhtml%3D1%3Balign%3Dcenter%3BverticalAlign%3Dmiddle%3BwhiteSpace%3Dwrap%3Brounded%3D0%3B%22%20vertex%3D%221%22%20parent%3D%221%22%3E%3CmxGeometry%20x%3D%22420%22%20y%3D%22325%22%20width%3D%2260%22%20height%3D%2230%22%20as%3D%22geometry%22%2F%3E%3C%2FmxCell%3E%3C%2Froot%3E%3C%2FmxGraphModel%3E&lt;/span&gt;&lt;span style=&quot;text-align: start;&quot;&gt;&lt;font face=&quot;monospace&quot; color=&quot;rgba(0, 0, 0, 0)&quot;&gt;&lt;span style=&quot;font-size: 0px; text-wrap-mode: nowrap;&quot;&gt;强3CmxGraphModel%3E%3Croot%3E%3CmxCell%20id%3D%220%22%2F%3E%3CmxCell%20id%3D%221%22%20parent%3D%220%22%2F%3E%3CmxCell%20id%3D%222%22%20value%3D%22%E5%BC%BA%E5%88%B6%E4%BA%8B%E5%8A%A1%22%20style%3D%22text%3Bhtml%3D1%3Balign%3Dcenter%3BverticalAlign%3Dmiddle%3BwhiteSpace%3Dwrap%3Brounded%3D0%3B%22%20vertex%3D%221%22%20parent%3D%221%22%3E%3CmxGeometry%20x%3D%22420%22%20y%3D%22325%22%20width%3D%2260%22%20height%3D%2230%22%20as%3D%22geometry%22%2F%3E%3C%2FmxCell%3E%3C%2Froot%3E%3C%2FmxGraphModel%3E%3CmxGraphModel%3E%3Croot%3E%3CmxCell%20id%3D%220%22%2F%3E%3CmxCell%20id%3D%221%22%20parent%3D%220%22%2F%3E%3CmxCell%20id%3D%222%22%20value%3D%22%E5%BC%BA%E5%88%B6%E4%BA%8B%E5%8A%A1%22%20style%3D%22text%3Bhtml%3D1%3Balign%3Dcenter%3BverticalAlign%3Dmiddle%3BwhiteSpace%3Dwrap%3Brounded%3D0%3B%22%20vertex%3D%221%22%20parent%3D%221%22%3E%3CmxGeometry%20x%3D%22420%22%20y%3D%22325%22%20width%3D%2260%22%20height%3D%2230%22%20as%3D%22geometry%22%2F%3E%3C%2FmxCell%3E%3C%2Froot%3E%3C%2FmxGraphModel%3E&lt;/span&gt;&lt;/font&gt;&lt;/span&gt;强制事务&lt;br&gt;校验并保存流水&lt;br&gt;（当前提交金额 + 在途金额&amp;nbsp; + 已使用金额&amp;lt;= ）" style="rounded=0;whiteSpace=wrap;html=1;" vertex="1" parent="1">
          <mxGeometry x="410" y="330" width="135" height="80" as="geometry" />
        </mxCell>
        <mxCell id="fXd5p_I2Rt34cmvx9dC--4" value="临时费用" style="rounded=0;whiteSpace=wrap;html=1;" vertex="1" parent="1">
          <mxGeometry x="122.5" y="339.5" width="70" height="45" as="geometry" />
        </mxCell>
        <mxCell id="fXd5p_I2Rt34cmvx9dC--5" value="。。。。。" style="rounded=0;whiteSpace=wrap;html=1;" vertex="1" parent="1">
          <mxGeometry x="120" y="484" width="70" height="50" as="geometry" />
        </mxCell>
        <mxCell id="fXd5p_I2Rt34cmvx9dC--8" value="冲差" style="rounded=0;whiteSpace=wrap;html=1;" vertex="1" parent="1">
          <mxGeometry x="30" y="410" width="70" height="50" as="geometry" />
        </mxCell>
        <mxCell id="fXd5p_I2Rt34cmvx9dC--40" style="edgeStyle=orthogonalEdgeStyle;rounded=0;orthogonalLoop=1;jettySize=auto;html=1;exitX=0.5;exitY=1;exitDx=0;exitDy=0;dashed=1;entryX=0.125;entryY=0.033;entryDx=0;entryDy=0;entryPerimeter=0;" edge="1" parent="1" source="fXd5p_I2Rt34cmvx9dC--11" target="fXd5p_I2Rt34cmvx9dC--1">
          <mxGeometry relative="1" as="geometry" />
        </mxCell>
        <mxCell id="fXd5p_I2Rt34cmvx9dC--11" value="费用模版审批通过" style="rounded=0;whiteSpace=wrap;html=1;" vertex="1" parent="1">
          <mxGeometry x="120" y="10" width="120" height="60" as="geometry" />
        </mxCell>
        <mxCell id="fXd5p_I2Rt34cmvx9dC--34" style="edgeStyle=orthogonalEdgeStyle;rounded=0;orthogonalLoop=1;jettySize=auto;html=1;exitX=1;exitY=0;exitDx=0;exitDy=0;entryX=0;entryY=0.5;entryDx=0;entryDy=0;dashed=1;" edge="1" parent="1" source="fXd5p_I2Rt34cmvx9dC--12" target="fXd5p_I2Rt34cmvx9dC--25">
          <mxGeometry relative="1" as="geometry">
            <mxPoint x="250" y="369.5" as="targetPoint" />
          </mxGeometry>
        </mxCell>
        <mxCell id="fXd5p_I2Rt34cmvx9dC--35" style="edgeStyle=orthogonalEdgeStyle;rounded=0;orthogonalLoop=1;jettySize=auto;html=1;exitX=1;exitY=1;exitDx=0;exitDy=0;entryX=0;entryY=0.5;entryDx=0;entryDy=0;dashed=1;" edge="1" parent="1" source="fXd5p_I2Rt34cmvx9dC--12" target="fXd5p_I2Rt34cmvx9dC--26">
          <mxGeometry relative="1" as="geometry">
            <mxPoint x="250" y="517" as="targetPoint" />
          </mxGeometry>
        </mxCell>
        <mxCell id="fXd5p_I2Rt34cmvx9dC--12" value="" style="ellipse;whiteSpace=wrap;html=1;aspect=fixed;labelBackgroundColor=none;fillColor=default;" vertex="1" parent="1">
          <mxGeometry x="100" y="380" width="115" height="115" as="geometry" />
        </mxCell>
        <mxCell id="fXd5p_I2Rt34cmvx9dC--14" value="" style="html=1;shadow=0;dashed=0;align=center;verticalAlign=middle;shape=mxgraph.arrows2.jumpInArrow;dy=15;dx=38;arrowHead=55;rotation=30;" vertex="1" parent="1">
          <mxGeometry x="120" y="394.5" width="87.5" height="86" as="geometry" />
        </mxCell>
        <mxCell id="fXd5p_I2Rt34cmvx9dC--18" value="待确认" style="text;html=1;align=center;verticalAlign=middle;whiteSpace=wrap;rounded=0;" vertex="1" parent="1">
          <mxGeometry x="620" y="354.5" width="50" height="30" as="geometry" />
        </mxCell>
        <mxCell id="fXd5p_I2Rt34cmvx9dC--27" style="edgeStyle=orthogonalEdgeStyle;rounded=0;orthogonalLoop=1;jettySize=auto;html=1;exitX=1;exitY=0.5;exitDx=0;exitDy=0;dashed=1;" edge="1" parent="1" source="fXd5p_I2Rt34cmvx9dC--25" target="fXd5p_I2Rt34cmvx9dC--3">
          <mxGeometry relative="1" as="geometry" />
        </mxCell>
        <mxCell id="fXd5p_I2Rt34cmvx9dC--25" value="创建事件" style="rounded=0;whiteSpace=wrap;html=1;" vertex="1" parent="1">
          <mxGeometry x="310" y="344.5" width="50" height="50" as="geometry" />
        </mxCell>
        <mxCell id="fXd5p_I2Rt34cmvx9dC--33" style="edgeStyle=orthogonalEdgeStyle;rounded=0;orthogonalLoop=1;jettySize=auto;html=1;exitX=1;exitY=0.5;exitDx=0;exitDy=0;dashed=1;" edge="1" parent="1" source="fXd5p_I2Rt34cmvx9dC--26" target="fXd5p_I2Rt34cmvx9dC--31">
          <mxGeometry relative="1" as="geometry" />
        </mxCell>
        <mxCell id="fXd5p_I2Rt34cmvx9dC--26" value="结束事件" style="rounded=0;whiteSpace=wrap;html=1;" vertex="1" parent="1">
          <mxGeometry x="310" y="475" width="50" height="50" as="geometry" />
        </mxCell>
        <mxCell id="fXd5p_I2Rt34cmvx9dC--31" value="确认/取消" style="rounded=0;whiteSpace=wrap;html=1;fillColor=none;" vertex="1" parent="1">
          <mxGeometry x="620" y="470" width="70" height="60" as="geometry" />
        </mxCell>
        <mxCell id="fXd5p_I2Rt34cmvx9dC--32" value="" style="rounded=0;whiteSpace=wrap;html=1;fillColor=none;" vertex="1" parent="1">
          <mxGeometry x="620" y="339.5" width="70" height="60" as="geometry" />
        </mxCell>
        <mxCell id="fXd5p_I2Rt34cmvx9dC--37" value="保存并提交" style="text;html=1;align=center;verticalAlign=middle;whiteSpace=wrap;rounded=0;" vertex="1" parent="1">
          <mxGeometry x="207.5" y="364.5" width="60" height="30" as="geometry" />
        </mxCell>
        <mxCell id="fXd5p_I2Rt34cmvx9dC--39" value="审批" style="text;html=1;align=center;verticalAlign=middle;whiteSpace=wrap;rounded=0;" vertex="1" parent="1">
          <mxGeometry x="208" y="454" width="60" height="30" as="geometry" />
        </mxCell>
        <mxCell id="fXd5p_I2Rt34cmvx9dC--41" value="触发重新计算" style="text;html=1;align=center;verticalAlign=middle;whiteSpace=wrap;rounded=0;" vertex="1" parent="1">
          <mxGeometry x="207.5" y="80" width="60" height="30" as="geometry" />
        </mxCell>
        <mxCell id="fXd5p_I2Rt34cmvx9dC--43" style="edgeStyle=orthogonalEdgeStyle;rounded=0;orthogonalLoop=1;jettySize=auto;html=1;exitX=0;exitY=0.75;exitDx=0;exitDy=0;entryX=0.563;entryY=-0.012;entryDx=0;entryDy=0;entryPerimeter=0;dashed=1;" edge="1" parent="1" source="fXd5p_I2Rt34cmvx9dC--1" target="fXd5p_I2Rt34cmvx9dC--3">
          <mxGeometry relative="1" as="geometry" />
        </mxCell>
        <mxCell id="fXd5p_I2Rt34cmvx9dC--45" value="费用控制" style="text;html=1;align=center;verticalAlign=middle;whiteSpace=wrap;rounded=0;" vertex="1" parent="1">
          <mxGeometry x="380" y="610" width="60" height="30" as="geometry" />
        </mxCell>
        <mxCell id="fXd5p_I2Rt34cmvx9dC--47" value="审批" style="text;html=1;align=center;verticalAlign=middle;whiteSpace=wrap;rounded=0;" vertex="1" parent="1">
          <mxGeometry x="270" y="610" width="60" height="30" as="geometry" />
        </mxCell>
        <mxCell id="fXd5p_I2Rt34cmvx9dC--49" value="应用" style="text;html=1;align=center;verticalAlign=middle;whiteSpace=wrap;rounded=0;" vertex="1" parent="1">
          <mxGeometry x="30" y="610" width="60" height="30" as="geometry" />
        </mxCell>
        <mxCell id="fXd5p_I2Rt34cmvx9dC--51" value="费用模版模块" style="text;html=1;align=center;verticalAlign=middle;whiteSpace=wrap;rounded=0;" vertex="1" parent="1">
          <mxGeometry x="30" y="120" width="60" height="30" as="geometry" />
        </mxCell>
        <mxCell id="fXd5p_I2Rt34cmvx9dC--53" style="edgeStyle=orthogonalEdgeStyle;rounded=0;orthogonalLoop=1;jettySize=auto;html=1;exitX=1;exitY=0.5;exitDx=0;exitDy=0;entryX=0.913;entryY=0.003;entryDx=0;entryDy=0;entryPerimeter=0;" edge="1" parent="1" source="fXd5p_I2Rt34cmvx9dC--52" target="fXd5p_I2Rt34cmvx9dC--2">
          <mxGeometry relative="1" as="geometry" />
        </mxCell>
        <mxCell id="fXd5p_I2Rt34cmvx9dC--52" value="自动计算费用" style="rounded=0;whiteSpace=wrap;html=1;" vertex="1" parent="1">
          <mxGeometry x="365" y="10" width="120" height="60" as="geometry" />
        </mxCell>
        <mxCell id="fXd5p_I2Rt34cmvx9dC--55" value="查询已确认的费用流水，按照fee进行聚合进行计算" style="text;html=1;align=center;verticalAlign=middle;whiteSpace=wrap;rounded=0;" vertex="1" parent="1">
          <mxGeometry x="540" y="10" width="175" height="30" as="geometry" />
        </mxCell>
      </root>
    </mxGraphModel>
  </diagram>
</mxfile>
